<svg width="100" height="101" viewBox="0 0 100 101" fill="none" xmlns="http://www.w3.org/2000/svg">
<circle cx="50" cy="50.9937" r="49" stroke="#FE9E45" stroke-width="2"/>
<path d="M49.9999 21.8269C33.9174 21.8269 20.8333 34.9111 20.8333 50.9936V63.0773C20.8333 66.064 23.4495 68.4936 26.6666 68.4936H29.5833C30.3568 68.4936 31.0987 68.1863 31.6456 67.6393C32.1926 67.0923 32.4999 66.3505 32.4999 65.5769V50.5765C32.4999 49.8029 32.1926 49.0611 31.6456 48.5141C31.0987 47.9671 30.3568 47.6598 29.5833 47.6598H26.9349C28.5566 36.3723 38.2691 27.6602 49.9999 27.6602C61.7308 27.6602 71.4433 36.3723 73.0649 47.6598H70.4166C69.643 47.6598 68.9012 47.9671 68.3542 48.5141C67.8072 49.0611 67.4999 49.8029 67.4999 50.5765V68.4936C67.4999 71.7107 64.8837 74.3269 61.6666 74.3269H55.8333V71.4102H44.1666V80.1602H61.6666C68.1008 80.1602 73.3333 74.9277 73.3333 68.4936C76.5503 68.4936 79.1666 66.064 79.1666 63.0773V50.9936C79.1666 34.9111 66.0824 21.8269 49.9999 21.8269Z" fill="white"/>
</svg>
