<svg width="101" height="101" viewBox="0 0 101 101" fill="none" xmlns="http://www.w3.org/2000/svg">
<circle cx="50.9946" cy="50.9937" r="49" stroke="#FE9E45" stroke-width="2"/>
<g clip-path="url(#clip0)">
<path d="M66.5502 42.2437C66.5502 30.1618 55.2335 20.3687 41.2724 20.3687C27.3113 20.3687 15.9946 30.1618 15.9946 42.2437C15.9946 46.929 17.7118 51.2603 20.609 54.819C18.9854 58.9534 16.3009 62.2265 16.262 62.2729C16.1311 62.428 16.0436 62.6228 16.0101 62.8333C15.9767 63.0437 15.9989 63.2606 16.0739 63.4571C16.1489 63.6535 16.2735 63.8209 16.4322 63.9385C16.5909 64.0561 16.7768 64.1187 16.9669 64.1187C21.4123 64.1187 25.1007 62.4438 27.75 60.7034C31.6632 62.8554 36.2922 64.1187 41.2724 64.1187C55.2335 64.1187 66.5502 54.3255 66.5502 42.2437ZM39.328 55.3687V53.1415C37.9559 53.0622 36.6215 52.5235 35.5156 51.5897C35.0417 51.1892 35.0174 50.3907 35.4464 49.93L36.8743 48.3974C37.2109 48.0364 37.7116 48.02 38.1054 48.2976C38.5757 48.6284 39.1092 48.8062 39.6634 48.8062H43.0795C43.8695 48.8062 44.5136 47.9968 44.5136 47.0028C44.5136 46.1894 44.0748 45.4729 43.4478 45.2624L37.979 43.4167C35.7198 42.6538 34.1412 40.2147 34.1412 37.4845C34.1412 34.1321 36.4563 31.4087 39.3267 31.3226V29.1187C39.3267 28.5144 39.7618 28.0249 40.299 28.0249H42.2434C42.7806 28.0249 43.2156 28.5144 43.2156 29.1187V31.3458C44.5877 31.4251 45.9221 31.9624 47.028 32.8976C47.5019 33.2981 47.5262 34.0966 47.0972 34.5573L45.6693 36.0899C45.3326 36.4509 44.832 36.4673 44.4382 36.1897C43.9679 35.8575 43.4344 35.6812 42.8802 35.6812H39.4641C38.6741 35.6812 38.03 36.4905 38.03 37.4845C38.03 38.2979 38.4688 39.0144 39.0958 39.2249L44.5646 41.0706C46.8238 41.8335 48.4024 44.2726 48.4024 47.0028C48.4024 50.3565 46.0873 53.0786 43.2169 53.1647V55.3687C43.2169 55.9729 42.7818 56.4624 42.2446 56.4624H40.3002C39.763 56.4624 39.328 55.9729 39.328 55.3687ZM81.3778 72.3204C84.2774 68.7616 85.9946 64.429 85.9946 59.7437C85.9946 50.5917 79.4941 42.7632 70.2774 39.4997C70.382 40.4021 70.4391 41.3167 70.4391 42.2437C70.4391 56.7181 57.3554 68.4937 41.2724 68.4937C39.9623 68.4937 38.6814 68.3884 37.4163 68.2366C41.2481 76.0993 50.2375 81.6187 60.7169 81.6187C65.6971 81.6187 70.326 80.3554 74.2392 78.2034C76.8885 79.9438 80.5769 81.6187 85.0224 81.6187C85.4113 81.6187 85.7625 81.3575 85.9144 80.9569C86.0688 80.555 85.9946 80.0901 85.7261 79.7716C85.6884 79.7265 83.0014 76.4575 81.3778 72.3204Z" fill="white"/>
</g>
<defs>
<clipPath id="clip0">
<rect width="70" height="70" fill="white" transform="translate(15.9946 15.9937)"/>
</clipPath>
</defs>
</svg>
