<svg width="101" height="100" viewBox="0 0 101 100" fill="none" xmlns="http://www.w3.org/2000/svg">
<circle cx="50.9949" cy="50" r="49" stroke="#FE9E45" stroke-width="2"/>
<path d="M24.7449 28.4983L51.008 20.8333L77.2449 28.4983V44.2162C77.2449 60.7362 66.672 73.9443 50.9992 79.1666C35.3222 73.9458 24.7449 60.7333 24.7449 44.2089V28.4983Z" stroke="white" stroke-width="4" stroke-linejoin="round"/>
<path d="M65.3664 43.1433C65.3534 42.9734 65.3066 42.8081 65.2289 42.6576C65.1512 42.5072 65.0443 42.3749 64.9148 42.269C64.7853 42.163 64.6361 42.0857 64.4763 42.0419C64.3166 41.9981 64.1498 41.9887 63.9864 42.0143C61.3734 42.4443 55.2474 44.9372 50.9949 44.9372C46.7424 44.9372 40.6164 42.4443 38.0034 42.0143C37.84 41.9885 37.6733 41.9977 37.5135 42.0413C37.3538 42.0849 37.2045 42.162 37.075 42.2679C36.9455 42.3737 36.8385 42.5059 36.7608 42.6562C36.6831 42.8066 36.6363 42.9719 36.6234 43.1417C36.4104 45.511 35.9949 51.8192 35.9949 52.7749C35.9949 54.0585 41.2029 57 44.9949 57C48.6729 57 49.4199 52.7749 50.9949 52.7749C52.5699 52.7749 53.3169 57 56.9949 57C60.7869 57 65.9949 54.0585 65.9949 52.7749C65.9949 51.8192 65.5794 45.511 65.3664 43.1433ZM47.4849 50.6902C46.9554 51.182 45.4824 52.345 43.6884 51.9816C41.8944 51.6181 40.8099 49.9355 40.4394 49.2628C40.3955 49.1853 40.3782 49.0948 40.3901 49.0059C40.4021 48.917 40.4427 48.8348 40.5054 48.7726C41.0349 48.2808 42.5079 47.1178 44.3034 47.4812C46.0974 47.8447 47.1819 49.5273 47.5524 50.2C47.5958 50.2778 47.6127 50.3683 47.6005 50.4571C47.5883 50.5459 47.5476 50.628 47.4849 50.6902ZM61.5504 49.2628C61.1814 49.9371 60.0969 51.6181 58.3014 51.9816C56.5074 52.345 55.0329 51.182 54.5049 50.6902C54.4422 50.628 54.4015 50.5459 54.3892 50.4571C54.377 50.3683 54.394 50.2778 54.4374 50.2C54.8064 49.5257 55.8909 47.8447 57.6864 47.4812C59.4804 47.1178 60.9549 48.2808 61.4829 48.7726C61.546 48.8345 61.5871 48.9166 61.5993 49.0056C61.6116 49.0946 61.5943 49.1852 61.5504 49.2628Z" fill="white"/>
</svg>
