<svg width="199" height="60" viewBox="0 0 199 60" fill="none" xmlns="http://www.w3.org/2000/svg">
<rect width="60" height="60" rx="5" fill="white"/>
<path d="M40.348 29.172C41.852 29.684 43.02 30.516 43.852 31.668C44.684 32.82 45.1 34.26 45.1 35.988C45.1 39.38 43.788 41.988 41.164 43.812C38.572 45.604 35.02 46.5 30.508 46.5H14.332L21.052 12.9H35.932C39.324 12.9 41.932 13.54 43.756 14.82C45.612 16.068 46.54 17.892 46.54 20.292C46.54 22.468 45.964 24.324 44.812 25.86C43.692 27.364 42.204 28.468 40.348 29.172ZM25.036 16.788L22.876 27.54H32.716C35.436 27.54 37.58 26.996 39.148 25.908C40.748 24.788 41.548 23.172 41.548 21.06C41.548 19.62 40.972 18.548 39.82 17.844C38.7 17.14 37.068 16.788 34.924 16.788H25.036ZM30.844 42.612C33.884 42.612 36.22 42.052 37.852 40.932C39.516 39.78 40.348 38.148 40.348 36.036C40.348 34.372 39.756 33.188 38.572 32.484C37.42 31.78 35.676 31.428 33.34 31.428H22.108L19.9 42.612H30.844Z" fill="#481C03"/>
<path d="M48.8904 30.8025L48.7774 30.7522L47.2444 30.0697L47.0828 29.9978L47.1802 29.8501C47.3882 29.5347 47.5576 29.1666 47.687 28.7442C47.816 28.3233 47.8799 27.9111 47.8799 27.5072C47.8799 27.1159 47.8302 26.8447 47.7461 26.6765C47.7052 26.5946 47.6585 26.5421 47.6101 26.5098C47.5626 26.4781 47.5049 26.4602 47.4314 26.4602C47.3558 26.4602 47.2971 26.4803 47.2484 26.5168C47.1981 26.5546 47.1492 26.6169 47.1075 26.7153L47.1053 26.7204L47.1052 26.7204C47.0077 26.9285 46.902 27.2788 46.7905 27.7807C46.7904 27.7809 46.7904 27.7811 46.7904 27.7812L46.6439 27.7487L48.8904 30.8025ZM48.8904 30.8025L48.9613 30.7012M48.8904 30.8025L48.9613 30.7012M48.9613 30.7012C49.2194 30.3325 49.4215 29.8597 49.5715 29.2883C49.7219 28.7155 49.7969 28.1252 49.7969 27.5177C49.7969 26.8034 49.6899 26.1871 49.4698 25.6736L49.4698 25.6736L49.4691 25.672C49.2435 25.1626 48.9406 24.7706 48.5558 24.5065C48.1733 24.244 47.7446 24.1127 47.2739 24.1127C46.7366 24.1127 46.2943 24.2566 45.9657 24.561C45.6473 24.8428 45.4164 25.1814 45.2748 25.5754C45.1312 25.9491 45 26.4188 44.8802 26.9825L44.8802 26.9827C44.7755 27.478 44.6765 27.8259 44.585 28.0351C44.543 28.131 44.4955 28.1915 44.4478 28.2279C44.402 28.2627 44.3487 28.2812 44.2814 28.2812C44.1449 28.2812 44.0319 28.2203 43.9359 28.0678L43.9359 28.0677L43.9337 28.0645C43.8328 27.9131 43.7699 27.649 43.7699 27.2447C43.7699 26.6163 43.9503 25.9616 44.3189 25.279L44.3978 25.1328L44.2444 25.0691L42.7009 24.4286L42.5803 24.3786L42.5141 24.4911C42.2952 24.8633 42.1327 25.291 42.0248 25.7724C41.9102 26.2525 41.8529 26.7398 41.8529 27.2342C41.8529 27.9552 41.9599 28.5751 42.1801 29.0888L42.1804 29.0895M48.9613 30.7012L42.1804 29.0895M42.1804 29.0895C42.3994 29.5932 42.7028 29.9818 43.0946 30.2458L42.1804 29.0895ZM42.209 38.1348L41.9999 38.0452L41.9999 38.2726L41.9999 40.3306L41.9999 40.4298L42.0912 40.4687L46.5514 42.3662L42.0922 44.2242L41.9999 44.2626L41.9999 44.3626L41.9999 46.6096L41.9999 46.8368L42.2089 46.7476L49.5589 43.6081L49.6499 43.5692V43.4701V41.4226V41.3237L49.559 41.2848L42.209 38.1348ZM47.3901 32.6892L47.3901 32.6891L47.3894 32.6875C47.1549 32.1747 46.8223 31.7736 46.3901 31.4904C45.9564 31.2063 45.4474 31.0669 44.8694 31.0669C44.2916 31.0669 43.7828 31.2062 43.3492 31.4901C42.9098 31.7732 42.5768 32.1747 42.3491 32.6883C42.1146 33.2018 41.9999 33.8011 41.9999 34.4824L41.9999 37.8424L41.9999 37.9924H42.1499H49.4999H49.6499V37.8424V35.7634V35.6134H49.4999H47.7284V34.4824C47.7284 33.8014 47.6173 33.2023 47.3901 32.6892ZM44.8694 33.4669C45.1776 33.4669 45.3984 33.5625 45.5534 33.7399C45.7032 33.9191 45.7904 34.2002 45.7904 34.6084V35.6134H43.9379L43.9379 34.6084C43.9379 34.2006 44.0285 33.92 44.1845 33.7409C44.3396 33.5629 44.5607 33.4669 44.8694 33.4669Z" fill="#FE9E45" stroke="white" stroke-width="0.3"/>
<path d="M92.91 29.58C94.11 29.96 95.05 30.6 95.73 31.5C96.41 32.38 96.75 33.47 96.75 34.77C96.75 36.61 96.03 38.03 94.59 39.03C93.17 40.01 91.09 40.5 88.35 40.5H77.49V19.5H87.75C90.31 19.5 92.27 19.99 93.63 20.97C95.01 21.95 95.7 23.28 95.7 24.96C95.7 25.98 95.45 26.89 94.95 27.69C94.47 28.49 93.79 29.12 92.91 29.58ZM82.32 23.16V28.11H87.15C88.35 28.11 89.26 27.9 89.88 27.48C90.5 27.06 90.81 26.44 90.81 25.62C90.81 24.8 90.5 24.19 89.88 23.79C89.26 23.37 88.35 23.16 87.15 23.16H82.32ZM87.99 36.84C89.27 36.84 90.23 36.63 90.87 36.21C91.53 35.79 91.86 35.14 91.86 34.26C91.86 32.52 90.57 31.65 87.99 31.65H82.32V36.84H87.99Z" fill="white"/>
<path d="M116.689 36.6V40.5H100.429V19.5H116.299V23.4H105.259V27.96H115.009V31.74H105.259V36.6H116.689Z" fill="white"/>
<path d="M124.906 23.46H118.186V19.5H136.486V23.46H129.766V40.5H124.906V23.46Z" fill="white"/>
<path d="M159.18 19.5L150.09 40.5H145.29L136.23 19.5H141.48L147.87 34.5L154.35 19.5H159.18Z" fill="#FE9E45"/>
<path d="M170.023 19.5C171.883 19.5 173.493 19.81 174.853 20.43C176.233 21.05 177.293 21.93 178.033 23.07C178.773 24.21 179.143 25.56 179.143 27.12C179.143 28.66 178.773 30.01 178.033 31.17C177.293 32.31 176.233 33.19 174.853 33.81C173.493 34.41 171.883 34.71 170.023 34.71H165.793V40.5H160.933V19.5H170.023ZM169.753 30.75C171.213 30.75 172.323 30.44 173.083 29.82C173.843 29.18 174.223 28.28 174.223 27.12C174.223 25.94 173.843 25.04 173.083 24.42C172.323 23.78 171.213 23.46 169.753 23.46H165.793V30.75H169.753Z" fill="#FE9E45"/>
<path d="M189.806 40.86C188.146 40.86 186.536 40.64 184.976 40.2C183.436 39.74 182.196 39.15 181.256 38.43L182.906 34.77C183.806 35.43 184.876 35.96 186.116 36.36C187.356 36.76 188.596 36.96 189.836 36.96C191.216 36.96 192.236 36.76 192.896 36.36C193.556 35.94 193.886 35.39 193.886 34.71C193.886 34.21 193.686 33.8 193.286 33.48C192.906 33.14 192.406 32.87 191.786 32.67C191.186 32.47 190.366 32.25 189.326 32.01C187.726 31.63 186.416 31.25 185.396 30.87C184.376 30.49 183.496 29.88 182.756 29.04C182.036 28.2 181.676 27.08 181.676 25.68C181.676 24.46 182.006 23.36 182.666 22.38C183.326 21.38 184.316 20.59 185.636 20.01C186.976 19.43 188.606 19.14 190.526 19.14C191.866 19.14 193.176 19.3 194.456 19.62C195.736 19.94 196.856 20.4 197.816 21L196.316 24.69C194.376 23.59 192.436 23.04 190.496 23.04C189.136 23.04 188.126 23.26 187.466 23.7C186.826 24.14 186.506 24.72 186.506 25.44C186.506 26.16 186.876 26.7 187.616 27.06C188.376 27.4 189.526 27.74 191.066 28.08C192.666 28.46 193.976 28.84 194.996 29.22C196.016 29.6 196.886 30.2 197.606 31.02C198.346 31.84 198.716 32.95 198.716 34.35C198.716 35.55 198.376 36.65 197.696 37.65C197.036 38.63 196.036 39.41 194.696 39.99C193.356 40.57 191.726 40.86 189.806 40.86Z" fill="#FE9E45"/>
</svg>
