<svg width="120" height="120" viewBox="0 0 120 120" fill="none" xmlns="http://www.w3.org/2000/svg">
<path d="M104.75 55H112.5V65H104.75C102.5 85.85 85.85 102.5 65 104.75V112.5H55V104.75C34.15 102.5 17.5 85.85 15.25 65H7.5V55H15.25C17.5 34.15 34.15 17.5 55 15.25V7.5H65V15.25C85.85 17.5 102.5 34.15 104.75 55ZM25.35 55H32.5V65H25.35C26.4126 72.4873 29.8784 79.4269 35.2257 84.7743C40.5731 90.1216 47.5127 93.5874 55 94.65V87.5H65V94.65C72.4873 93.5874 79.4269 90.1216 84.7743 84.7743C90.1216 79.4269 93.5874 72.4873 94.65 65H87.5V55H94.65C93.5874 47.5127 90.1216 40.5731 84.7743 35.2257C79.4269 29.8784 72.4873 26.4126 65 25.35V32.5H55V25.35C47.5127 26.4126 40.5731 29.8784 35.2257 35.2257C29.8784 40.5731 26.4126 47.5127 25.35 55ZM80 80H40V75C40 68.35 53.35 65 60 65C66.65 65 80 68.35 80 75V80ZM60 40C62.6522 40 65.1957 41.0536 67.0711 42.9289C68.9464 44.8043 70 47.3478 70 50C70 52.6522 68.9464 55.1957 67.0711 57.0711C65.1957 58.9464 62.6522 60 60 60C57.3478 60 54.8043 58.9464 52.9289 57.0711C51.0536 55.1957 50 52.6522 50 50C50 47.3478 51.0536 44.8043 52.9289 42.9289C54.8043 41.0536 57.3478 40 60 40Z" fill="#FE9E45"/>
</svg>
